# xmcd CD database file
#
# Track frame offsets:
#	150
#	14457
#	16223
#	47173
#	74556
#	75903
#	102922
#	105548
#	128592
#	134419
#	149781
#	169658
#	180319
#	205249
#	220467
#	222009
#	237728
#	238583
#	250221
#
# Disc length: 3614 seconds
#
# Revision: 0
# Processed by: cddbd v1.5.2PL0 Copyright (c) Steve Scherf et al.
# Submitted via: CDex 1.51
#
DISCID=140e1c13
DTITLE=Lill Lindfors - En sommarkonsert från Musik vid Siljan
DYEAR=1900
DGENRE=Jazz
TTITLE0=Här är den sköna sommar
TTITLE1=Välkomna
TTITLE2=Medley (D'ont get... Honeysuckle... Teach me...)
TTITLE3=I've got you under my skin
TTITLE4=Intro till I'm gonna sit right down...
TTITLE5=I'm gonna sit right down and write myself a letter
TTITLE6=Dikt: Att leva i längtan
TTITLE7=Jag vill nå dig (Längtrans samba)
TTITLE8=Francois Sagan - prata
TTITLE9=Kom se mig
TTITLE10=Felicia adjö
TTITLE11=Presentation av Hector
TTITLE12=Medley (Gracias a la vida, Resalsa)
TTITLE13=Så skimrande var aldrig havet
TTITLE14=Intro till Inviitation till Guatemala
TTITLE15=Invitation till Guatemala
TTITLE16=Intro till La Partida
TTITLE17=La Partida
TTITLE18=Se'n kommer trollen fram (Django)
EXTD=
EXTT0=
EXTT1=
EXTT2=
EXTT3=
EXTT4=
EXTT5=
EXTT6=
EXTT7=
EXTT8=
EXTT9=
EXTT10=
EXTT11=
EXTT12=
EXTT13=
EXTT14=
EXTT15=
EXTT16=
EXTT17=
EXTT18=
PLAYORDER=
